# xmcd
#
# Track frame offsets:
#	150
#	22652
#	36897
#	59585
#	78380
#	92032
#	107707
#	130505
#	146095
#	165582
#	183005
#	201082
#	225690
#	247257
#
# Disc length: 3418 seconds
#
# Revision: 1
# Processed by: cddbd v1.5.1PL0 Copyright (c) Steve Scherf et al.
# Submitted via: dBpowerAMP V4.0
#
DISCID=b40d580e
DTITLE=William Blackrose - What About Me
DYEAR=1999
DGENRE=Country
TTITLE0=Baby Bey Bye
TTITLE1=What About Me
TTITLE2=Die Waarheid
TTITLE3=Then There's Me
TTITLE4=Rainbow
TTITLE5=Change Your Mind
TTITLE6=Everything (Remix 99)
TTITLE7=Cause I Love You
TTITLE8=Skadus
TTITLE9=Lost And Alone
TTITLE10=I'll Be There
TTITLE11=When The Shadows Come
TTITLE12=Lisa se Klavier
TTITLE13=GoodBye
EXTD=
EXTT0=
EXTT1=
EXTT2=
EXTT3=
EXTT4=
EXTT5=
EXTT6=
EXTT7=
EXTT8=
EXTT9=
EXTT10=
EXTT11=
EXTT12=
EXTT13=
PLAYORDER=
